<svg width="104" height="18" viewBox="0 0 104 18" fill="none" xmlns="http://www.w3.org/2000/svg">
<path d="M14.1504 11.5837C14.0991 12.697 13.7988 13.6821 13.2495 14.5391C12.7002 15.3887 11.9275 16.0479 10.9314 16.5166C9.94263 16.9854 8.81104 17.2197 7.53662 17.2197C5.43457 17.2197 3.7793 16.5349 2.5708 15.1653C1.3623 13.7957 0.758057 11.8621 0.758057 9.3645V8.57349C0.758057 7.0061 1.02905 5.63647 1.57104 4.4646C2.12036 3.2854 2.90771 2.3772 3.93311 1.73999C4.9585 1.09546 6.14502 0.773193 7.49268 0.773193C9.43359 0.773193 10.9937 1.28589 12.1729 2.31128C13.3521 3.32935 14.0222 4.7356 14.1833 6.53003H10.3381C10.3088 5.55591 10.0635 4.85645 9.60205 4.43164C9.14062 4.00684 8.4375 3.79443 7.49268 3.79443C6.5332 3.79443 5.83008 4.15332 5.3833 4.87109C4.93652 5.58887 4.70215 6.73511 4.68018 8.30981V9.44141C4.68018 11.1479 4.89258 12.3674 5.31738 13.0999C5.74951 13.8323 6.48926 14.1985 7.53662 14.1985C8.42285 14.1985 9.10034 13.9897 9.56909 13.5723C10.0378 13.1548 10.2869 12.4919 10.3162 11.5837H14.1504ZM29.5203 9.33154C29.5203 10.8916 29.231 12.2722 28.6523 13.4734C28.0737 14.6746 27.2498 15.6011 26.1804 16.2529C25.1184 16.8975 23.9062 17.2197 22.5439 17.2197C21.1816 17.2197 19.9731 16.9084 18.9185 16.2859C17.8638 15.656 17.0398 14.7588 16.4465 13.5942C15.8606 12.4297 15.553 11.093 15.5237 9.58423V8.68335C15.5237 7.11597 15.8093 5.73535 16.3806 4.5415C16.9592 3.34033 17.7832 2.41382 18.8525 1.76196C19.9292 1.11011 21.1523 0.78418 22.522 0.78418C23.877 0.78418 25.0854 1.10645 26.1475 1.75098C27.2095 2.39551 28.0334 3.3147 28.6194 4.50854C29.2126 5.69507 29.5129 7.05737 29.5203 8.59546V9.33154ZM25.5981 8.66138C25.5981 7.07202 25.3308 5.86719 24.7961 5.04688C24.2688 4.21924 23.5107 3.80542 22.522 3.80542C20.5884 3.80542 19.5667 5.25562 19.4568 8.15601L19.4458 9.33154C19.4458 10.8989 19.7058 12.1038 20.2258 12.946C20.7458 13.7883 21.5186 14.2095 22.5439 14.2095C23.5181 14.2095 24.2688 13.7957 24.7961 12.968C25.3235 12.1404 25.5908 10.9502 25.5981 9.39746V8.66138ZM35.365 11.5728V17H31.5088V1.00391H37.8918C39.115 1.00391 40.1953 1.23096 41.1328 1.68506C42.0776 2.13184 42.8064 2.77271 43.3191 3.60767C43.8391 4.4353 44.0991 5.37646 44.0991 6.43115C44.0991 7.99121 43.5388 9.23999 42.4182 10.1775C41.3049 11.1077 39.7742 11.5728 37.8259 11.5728H35.365ZM35.365 8.59546H37.8918C38.6389 8.59546 39.2065 8.40869 39.5947 8.03516C39.9902 7.66162 40.188 7.13428 40.188 6.45312C40.188 5.70605 39.9866 5.10913 39.5837 4.66235C39.1809 4.21558 38.6316 3.98853 37.9358 3.9812H35.365V8.59546ZM52.0203 7.94727L54.9646 1.00391H59.1284L53.9758 11.2542V17H50.0647V11.2542L44.9231 1.00391H49.0649L52.0203 7.94727Z" fill="#9C9C9C"/>
<path d="M73.2349 11.5837C73.1836 12.697 72.8833 13.6821 72.334 14.5391C71.7847 15.3887 71.012 16.0479 70.0159 16.5166C69.0271 16.9854 67.8955 17.2197 66.6211 17.2197C64.519 17.2197 62.8638 16.5349 61.6553 15.1653C60.4468 13.7957 59.8425 11.8621 59.8425 9.3645V8.57349C59.8425 7.0061 60.1135 5.63647 60.6555 4.4646C61.2048 3.2854 61.9922 2.3772 63.0176 1.73999C64.043 1.09546 65.2295 0.773193 66.5771 0.773193C68.5181 0.773193 70.0781 1.28589 71.2573 2.31128C72.4365 3.32935 73.1067 4.7356 73.2678 6.53003H69.4226C69.3933 5.55591 69.1479 4.85645 68.6865 4.43164C68.2251 4.00684 67.522 3.79443 66.5771 3.79443C65.6177 3.79443 64.9146 4.15332 64.4678 4.87109C64.021 5.58887 63.7866 6.73511 63.7646 8.30981V9.44141C63.7646 11.1479 63.9771 12.3674 64.4019 13.0999C64.834 13.8323 65.5737 14.1985 66.6211 14.1985C67.5073 14.1985 68.1848 13.9897 68.6536 13.5723C69.1223 13.1548 69.3713 12.4919 69.4006 11.5837H73.2349ZM84.1443 14.0117H78.8599L77.937 17H73.8171L79.6838 1.00391H83.3093L89.22 17H85.0781L84.1443 14.0117ZM79.7827 11.0344H83.2214L81.4966 5.48633L79.7827 11.0344ZM103.755 17H99.9207L94.2517 7.04639V17H90.3955V1.00391H94.2517L99.9097 10.9575V1.00391H103.755V17Z" fill="#D3D3D3"/>
</svg>
