<svg width="106" height="110" viewBox="0 0 106 110" fill="none" xmlns="http://www.w3.org/2000/svg">
<rect x="22" y="66" width="18" height="18" rx="4" fill="#D3D3D3"/>
<rect x="44" y="66" width="18" height="18" rx="4" fill="#FF8A8A"/>
<rect x="88" y="66" width="18" height="18" rx="4" fill="#D3D3D3"/>
<rect x="66" y="66" width="18" height="18" rx="4" fill="#FF8A8A"/>
<rect x="22" y="44" width="18" height="18" rx="4" fill="#FF8A8A"/>
<rect x="44" y="44" width="18" height="18" rx="4" fill="#D3D3D3"/>
<rect x="88" y="44" width="18" height="18" rx="4" fill="#FF8A8A"/>
<rect x="88" y="22" width="18" height="18" rx="4" fill="#D3D3D3"/>
<rect x="44" y="22" width="18" height="18" rx="4" fill="#D3D3D3"/>
<rect x="22" y="22" width="18" height="18" rx="4" fill="#FF8A8A"/>
<rect x="66" y="44" width="18" height="18" rx="4" fill="#D3D3D3"/>
<rect x="66" y="22" width="18" height="18" rx="4" fill="#FF8A8A"/>
<rect x="22" width="18" height="18" rx="4" fill="#FF8A8A"/>
<rect y="44" width="18" height="18" rx="4" fill="#D3D3D3"/>
<rect y="66" width="18" height="18" rx="4" fill="#FF8A8A"/>
<rect y="22" width="18" height="18" rx="4" fill="#FF8A8A"/>
<rect width="18" height="18" rx="4" fill="#FF8A8A"/>
<rect x="44" width="18" height="18" rx="4" fill="#D3D3D3"/>
<rect x="66" width="18" height="18" rx="4" fill="#FF8A8A"/>
<rect x="88" width="18" height="18" rx="4" fill="#D3D3D3"/>
<path d="M14.1504 99.5837C14.0991 100.697 13.7988 101.682 13.2495 102.539C12.7002 103.389 11.9275 104.048 10.9314 104.517C9.94263 104.985 8.81104 105.22 7.53662 105.22C5.43457 105.22 3.7793 104.535 2.5708 103.165C1.3623 101.796 0.758057 99.8621 0.758057 97.3645V96.5735C0.758057 95.0061 1.02905 93.6365 1.57104 92.4646C2.12036 91.2854 2.90771 90.3772 3.93311 89.74C4.9585 89.0955 6.14502 88.7732 7.49268 88.7732C9.43359 88.7732 10.9937 89.2859 12.1729 90.3113C13.3521 91.3293 14.0222 92.7356 14.1833 94.53H10.3381C10.3088 93.5559 10.0635 92.8564 9.60205 92.4316C9.14062 92.0068 8.4375 91.7944 7.49268 91.7944C6.5332 91.7944 5.83008 92.1533 5.3833 92.8711C4.93652 93.5889 4.70215 94.7351 4.68018 96.3098V97.4414C4.68018 99.1479 4.89258 100.367 5.31738 101.1C5.74951 101.832 6.48926 102.198 7.53662 102.198C8.42285 102.198 9.10034 101.99 9.56909 101.572C10.0378 101.155 10.2869 100.492 10.3162 99.5837H14.1504ZM29.5203 97.3315C29.5203 98.8916 29.231 100.272 28.6523 101.473C28.0737 102.675 27.2498 103.601 26.1804 104.253C25.1184 104.897 23.9062 105.22 22.5439 105.22C21.1816 105.22 19.9731 104.908 18.9185 104.286C17.8638 103.656 17.0398 102.759 16.4465 101.594C15.8606 100.43 15.553 99.093 15.5237 97.5842V96.6833C15.5237 95.116 15.8093 93.7354 16.3806 92.5415C16.9592 91.3403 17.7832 90.4138 18.8525 89.762C19.9292 89.1101 21.1523 88.7842 22.522 88.7842C23.877 88.7842 25.0854 89.1064 26.1475 89.751C27.2095 90.3955 28.0334 91.3147 28.6194 92.5085C29.2126 93.6951 29.5129 95.0574 29.5203 96.5955V97.3315ZM25.5981 96.6614C25.5981 95.072 25.3308 93.8672 24.7961 93.0469C24.2688 92.2192 23.5107 91.8054 22.522 91.8054C20.5884 91.8054 19.5667 93.2556 19.4568 96.156L19.4458 97.3315C19.4458 98.8989 19.7058 100.104 20.2258 100.946C20.7458 101.788 21.5186 102.209 22.5439 102.209C23.5181 102.209 24.2688 101.796 24.7961 100.968C25.3235 100.14 25.5908 98.9502 25.5981 97.3975V96.6614ZM35.365 99.5728V105H31.5088V89.0039H37.8918C39.115 89.0039 40.1953 89.231 41.1328 89.6851C42.0776 90.1318 42.8064 90.7727 43.3191 91.6077C43.8391 92.4353 44.0991 93.3765 44.0991 94.4312C44.0991 95.9912 43.5388 97.24 42.4182 98.1775C41.3049 99.1077 39.7742 99.5728 37.8259 99.5728H35.365ZM35.365 96.5955H37.8918C38.6389 96.5955 39.2065 96.4087 39.5947 96.0352C39.9902 95.6616 40.188 95.1343 40.188 94.4531C40.188 93.7061 39.9866 93.1091 39.5837 92.6624C39.1809 92.2156 38.6316 91.9885 37.9358 91.9812H35.365V96.5955ZM52.0203 95.9473L54.9646 89.0039H59.1284L53.9758 99.2542V105H50.0647V99.2542L44.9231 89.0039H49.0649L52.0203 95.9473Z" fill="#FF8A8A"/>
<path d="M73.2349 99.5837C73.1836 100.697 72.8833 101.682 72.334 102.539C71.7847 103.389 71.012 104.048 70.0159 104.517C69.0271 104.985 67.8955 105.22 66.6211 105.22C64.519 105.22 62.8638 104.535 61.6553 103.165C60.4468 101.796 59.8425 99.8621 59.8425 97.3645V96.5735C59.8425 95.0061 60.1135 93.6365 60.6555 92.4646C61.2048 91.2854 61.9922 90.3772 63.0176 89.74C64.043 89.0955 65.2295 88.7732 66.5771 88.7732C68.5181 88.7732 70.0781 89.2859 71.2573 90.3113C72.4365 91.3293 73.1067 92.7356 73.2678 94.53H69.4226C69.3933 93.5559 69.1479 92.8564 68.6865 92.4316C68.2251 92.0068 67.522 91.7944 66.5771 91.7944C65.6177 91.7944 64.9146 92.1533 64.4678 92.8711C64.021 93.5889 63.7866 94.7351 63.7646 96.3098V97.4414C63.7646 99.1479 63.9771 100.367 64.4019 101.1C64.834 101.832 65.5737 102.198 66.6211 102.198C67.5073 102.198 68.1848 101.99 68.6536 101.572C69.1223 101.155 69.3713 100.492 69.4006 99.5837H73.2349ZM84.1443 102.012H78.8599L77.937 105H73.8171L79.6838 89.0039H83.3093L89.22 105H85.0781L84.1443 102.012ZM79.7827 99.0344H83.2214L81.4966 93.4863L79.7827 99.0344ZM103.755 105H99.9207L94.2517 95.0464V105H90.3955V89.0039H94.2517L99.9097 98.9575V89.0039H103.755V105Z" fill="#D3D3D3"/>
</svg>
