<svg width="16" height="16" viewBox="0 0 16 16" fill="none" xmlns="http://www.w3.org/2000/svg">
<path fill-rule="evenodd" clip-rule="evenodd" d="M9.29581 1.41299C9.06261 0.195669 7.32002 0.19567 7.08681 1.41299C6.92011 2.28315 5.85945 2.62778 5.21313 2.02179C4.30893 1.17403 2.89915 2.1983 3.42601 3.32021C3.80261 4.12216 3.14708 5.02441 2.268 4.91406C1.0382 4.75968 0.499709 6.41698 1.58539 7.01494C2.36144 7.44238 2.36144 8.55762 1.58539 8.98505C0.499709 9.58302 1.0382 11.2403 2.268 11.0859C3.14708 10.9756 3.80261 11.8778 3.42601 12.6798C2.89915 13.8017 4.30893 14.826 5.21313 13.9782C5.85945 13.3722 6.92011 13.7169 7.08681 14.587C7.32002 15.8043 9.06261 15.8043 9.29581 14.587C9.46251 13.7169 10.5232 13.3722 11.1695 13.9782C12.0737 14.826 13.4835 13.8017 12.9566 12.6798C12.58 11.8778 13.2355 10.9756 14.1146 11.0859C15.3444 11.2403 15.8829 9.58302 14.7972 8.98505C14.0212 8.55762 14.0212 7.44238 14.7972 7.01494C15.8829 6.41698 15.3444 4.75968 14.1146 4.91406C13.2355 5.02441 12.58 4.12216 12.9566 3.32021C13.4835 2.1983 12.0737 1.17403 11.1695 2.02179C10.5232 2.62778 9.46251 2.28314 9.29581 1.41299ZM8.20717 5.17866C6.55231 5.17866 5.21079 6.52018 5.21079 8.17503C5.21079 9.82989 6.55231 11.1714 8.20717 11.1714C9.86202 11.1714 11.2035 9.82989 11.2035 8.17503C11.2035 6.52018 9.86202 5.17866 8.20717 5.17866Z" fill="white"/>
</svg>
