<svg width="32" height="32" viewBox="0 0 32 32" fill="none" xmlns="http://www.w3.org/2000/svg">
<path d="M25.5 16.5C25.5 22.0229 21.0228 26.5 15.5 26.5C9.97715 26.5 5.5 22.0229 5.5 16.5C5.5 12.6212 7.7083 9.25727 10.9386 7.59849C11.2731 7.42671 11.5 7.08081 11.5 6.68726C11.5 5.97583 10.7569 5.44721 10.0726 5.7948L10.2973 6.23723L10.0726 5.7948C6.17344 7.77538 3.5 11.8251 3.5 16.5C3.5 23.1275 8.87258 28.5 15.5 28.5C22.1274 28.5 27.5 23.1275 27.5 16.5C27.5 11.8251 24.8266 7.77538 20.9274 5.7948C20.2431 5.44721 19.5 5.97583 19.5 6.68726C19.5 7.08081 19.7269 7.42671 20.0614 7.59849C23.2917 9.25727 25.5 12.6212 25.5 16.5Z" fill="white" stroke="white"/>
<rect x="14.5" y="2.5" width="2" height="11" rx="1" fill="white" stroke="white"/>
</svg>
