<svg width="32" height="32" viewBox="0 0 32 32" fill="none" xmlns="http://www.w3.org/2000/svg">
<path fill-rule="evenodd" clip-rule="evenodd" d="M17.8431 4.52349C17.4539 2.49217 14.5461 2.49217 14.157 4.52349C13.8788 5.9755 12.1089 6.55058 11.0304 5.53938C9.52156 4.12474 7.16908 5.83392 8.04824 7.70603C8.67666 9.04423 7.5828 10.5498 6.1159 10.3657C4.06374 10.1081 3.16517 12.8736 4.97682 13.8714C6.27181 14.5846 6.27181 16.4456 4.97683 17.1589C3.16517 18.1567 4.06374 20.9222 6.1159 20.6646C7.5828 20.4804 8.67666 21.986 8.04824 23.3242C7.16908 25.1963 9.52156 26.9055 11.0304 25.4909C12.1089 24.4797 13.8788 25.0547 14.157 26.5067C14.5461 28.5381 17.4539 28.5381 17.8431 26.5067C18.1212 25.0547 19.8912 24.4797 20.9697 25.4909C22.4785 26.9055 24.831 25.1963 23.9518 23.3242C23.3234 21.986 24.4172 20.4804 25.8841 20.6646C27.9363 20.9222 28.8349 18.1567 27.0232 17.1589C25.7282 16.4456 25.7282 14.5846 27.0232 13.8714C28.8349 12.8736 27.9363 10.1081 25.8841 10.3657C24.4172 10.5498 23.3234 9.04423 23.9518 7.70603C24.831 5.83392 22.4785 4.12474 20.9697 5.53938C19.8912 6.55058 18.1212 5.9755 17.8431 4.52349ZM15.9999 8.64434C12.2053 8.64434 9.12916 11.7205 9.12916 15.5151C9.12916 19.3097 12.2053 22.3858 15.9999 22.3858C19.7945 22.3858 22.8707 19.3097 22.8707 15.5151C22.8707 11.7205 19.7945 8.64434 15.9999 8.64434Z" fill="white"/>
</svg>
